<?xml version="1.0" encoding="iso-8859-1"?>
<!-- Generator: Adobe Illustrator 19.0.0, SVG Export Plug-In . SVG Version: 6.00 Build 0)  -->
<svg version="1.1" id="Capa_1" xmlns="http://www.w3.org/2000/svg" xmlns:xlink="http://www.w3.org/1999/xlink" x="0px" y="0px"
	 viewBox="0 0 512.001 512.001" style="enable-background:new 0 0 512.001 512.001;" xml:space="preserve">
<g>
	<g>
		<g>
			<path d="M433.65,436.981c0-63.428-51.603-115.031-115.031-115.031s-115.031,51.603-115.031,115.031v45.012h-90.024v30.008
				h350.094v-30.008H433.65V436.981z M318.62,436.981c-11.049,0-20.005-8.956-20.005-20.005s8.956-20.005,20.005-20.005
				s20.005,8.956,20.005,20.005S329.669,436.981,318.62,436.981z"/>
			<path d="M464.272,150.546c-3.724-7.986-9.19-14.804-15.937-20.075L304.84,12.769l-0.002,0.002
				c-11.236-9.373-25.442-13.834-40.027-12.557c-14.048,1.229-26.82,7.649-36.177,18.112L60.561,149.9l0.01,0.013
				c-10.937,8.219-18.025,21.298-18.025,36.001v75.02h30.008v30.008h30.008v-30.008h30.008v-75.02c0-4.858-0.783-9.535-2.214-13.921
				l112.225-67.988l106.802,87.603l-36.564,100.46c1.926-0.076,3.858-0.126,5.802-0.126c37.537,0,71.789,14.335,97.571,37.817
				l49.917-137.147C471.134,178.804,470.481,163.865,464.272,150.546z M288.763,71.095c-4.293,5.116-10.323,8.255-16.977,8.837
				c-6.629,0.578-13.089-1.448-18.198-5.712l-0.075-0.061c-5.104-4.292-8.236-10.314-8.817-16.96
				c-0.582-6.654,1.461-13.136,5.756-18.254c4.293-5.116,10.322-8.255,16.977-8.837c0.743-0.065,1.484-0.097,2.223-0.097
				c5.863,0,11.486,2.039,16.031,5.853c5.116,4.293,8.255,10.323,8.837,16.977C295.101,59.495,293.056,65.978,288.763,71.095z
				 M437.91,182.35c-2.285,6.277-6.877,11.288-12.93,14.111c-6.053,2.823-12.844,3.12-19.121,0.835
				c-12.958-4.716-19.662-19.094-14.946-32.052c2.285-6.277,6.877-11.288,12.93-14.111c3.362-1.567,6.951-2.356,10.553-2.356
				c2.884,0,5.776,0.505,8.567,1.521c6.277,2.285,11.288,6.877,14.111,12.93C439.898,169.282,440.194,176.073,437.91,182.35z"/>
		</g>
	</g>
</g>
<g>
</g>
<g>
</g>
<g>
</g>
<g>
</g>
<g>
</g>
<g>
</g>
<g>
</g>
<g>
</g>
<g>
</g>
<g>
</g>
<g>
</g>
<g>
</g>
<g>
</g>
<g>
</g>
<g>
</g>
</svg>
